<svg width="22" height="18" viewBox="0 0 22 18" fill="none" xmlns="http://www.w3.org/2000/svg">
<path fill-rule="evenodd" clip-rule="evenodd" d="M3 2C2.44772 2 2 2.44772 2 3V15C2 15.5523 2.44772 16 3 16H19C19.5523 16 20 15.5523 20 15V3C20 2.44772 19.5523 2 19 2H3ZM0 3C0 1.34315 1.34315 0 3 0H19C20.6569 0 22 1.34315 22 3V15C22 16.6569 20.6569 18 19 18H3C1.34315 18 0 16.6569 0 15V3Z" fill="#252525"/>
<path d="M8.39615 5.36625C7.87496 6.02145 8.34154 6.98877 9.17875 6.98877H12.8214C13.6586 6.98877 14.1252 6.02145 13.604 5.36625L11.7827 3.07659C11.3823 2.57329 10.6178 2.57329 10.2175 3.07659L8.39615 5.36625Z" fill="#252525"/>
<path d="M13.6038 12.7153C14.125 12.0601 13.6585 11.0928 12.8212 11.0928H9.17862C8.3414 11.0928 7.87483 12.0601 8.39602 12.7153L10.2173 15.005C10.6177 15.5083 11.3822 15.5083 11.7825 15.005L13.6038 12.7153Z" fill="#252525"/>
</svg>
